<svg id="USA" xmlns="http://www.w3.org/2000/svg" viewBox="0 0 131 76.05"><defs><style>.cls-1{fill:#fff;}.cls-2{fill:#ec2427;}.cls-3{fill:#1a4a9c;}</style></defs><title>flag</title><path class="cls-1" d="M0,0H129.6V75.2H0Z"/><path class="cls-2" d="M128.17,11.82C114.23,11.21,98.58,18.89,89.49,25a54.4,54.4,0,0,1-16.77,7.07l-4.14-8.59a56.44,56.44,0,0,0,17.17-7.17C94.84,10.2,110.5,2.53,124.43,3.13c1.72.1,5.45.2,6.57.4V12c-1-.1-1.62-.1-2.83-.2M97.37,0A90.08,90.08,0,0,0,82.92,7.88c-5.35,3.64-12.22,6.06-18.18,7.47l-4-8.69A59.9,59.9,0,0,0,77.87,0ZM0,74.24C8.69,73.53,23.33,70.3,33,63c10.2-7.58,21.61-12.12,34.44-12.12,6.26,0,19.39-2.53,28.48-8.69,8.28-5.66,22.12-12.42,35-13.23V20.2c-13.94-.61-29.59,7.07-38.68,13.23S70.1,42.12,63.83,42.12c-12.83,0-24.24,4.55-34.44,12.12C20.91,60.6,8.69,63.93,0,65.15Z"/><path class="cls-3" d="M0,56.16c8.38-1.52,18.89-4.75,26.46-10.3,10.2-7.58,21.61-12.12,34.44-12.12A49.36,49.36,0,0,0,72.62,32L57.47,0H0Z"/><path class="cls-2" d="M45.75,76.05a54.83,54.83,0,0,1,28-7.88c6.26,0,19.39-2.53,28.48-8.69,7-4.75,17.78-10.3,28.79-12.42V37.77c-12.12,1.41-24.64,7.68-32.42,12.93-9.09,6.16-22.22,8.69-28.48,8.69-12.83,0-24.24,4.55-34.44,12.12A43.77,43.77,0,0,1,28.08,76Zm63.63-.1A87.89,87.89,0,0,1,131,65.65V56a83.78,83.78,0,0,0-26.16,11.82C98.17,72.32,89.39,74.84,82.72,76Z"/><path class="cls-1" d="M5.86,47.27l.3-2.32,1.72,1.62,2.42-.3L9.19,48.38l1.11,2L8,50.1,6.16,51.71l-.4-2.32-2-1Zm12.63-4.75.3-2.32,1.82,1.62,2.32-.3-1.11,2,1.11,2.12-2.32-.4L18.79,47l-.3-2.32-2.12-1.11ZM30.3,35.75l.3-2.32L32.42,35l2.32-.3-1.11,2,1.11,2.12-2.32-.3L30.6,40.2l-.3-2.32-2.12-1.11Zm12.93-6.16.4-2.32,1.72,1.62,2.32-.4-1,2.12,1,2.12-2.32-.4-1.72,1.62-.4-2.32-2.12-1Zm15.45-2.22.3-2.42,1.72,1.62,2.42-.3L62,28.38l1.11,2-2.42-.3L59,31.71l-.4-2.32-2.12-1Zm-10-7,.3-2.32L50.7,19.7l2.42-.3L52,21.51l1.11,2-2.32-.3L49,24.85l-.3-2.32-2.12-1Zm-15.35,3,.3-2.42,1.72,1.62,2.42-.3-1.11,2.12,1.11,2-2.32-.3-1.82,1.62-.4-2.32-2-1ZM20.5,30.2l.3-2.42,1.72,1.62,2.42-.3-1.11,2.12,1.11,2-2.32-.3-1.82,1.62-.3-2.32-2.12-1ZM8.59,37.07l.3-2.32,1.72,1.62,2.32-.4-1,2.12,1,2.12-2.32-.4L8.89,41.41l-.4-2.32-2.12-1ZM0,28l1.82,1.62,2.32-.4L3,31.31l1.11,2.12L1.82,33,0,34.64Zm11.72-2.73.3-2.42,1.72,1.72,2.32-.4-1,2.12,1,2.12L13.74,28,12,29.59l-.4-2.32-2.12-1Zm12-7.07.3-2.32,1.82,1.62,2.32-.3-1,2,1,2.12-2.32-.4L24,22.62l-.3-2.42-2.12-1ZM36.56,12l.3-2.42,1.82,1.72,2.32-.4L39.9,13,41,15.15l-2.32-.4-1.82,1.62L36.56,14l-2.12-1Zm15.55-2,.3-2.32,1.72,1.62L56.56,9l-1.11,2.12,1.11,2-2.32-.3-1.82,1.62L52,12.12,50,11ZM48.68,0l-.81,1.52,1.11,2-2.32-.3L44.85,4.85l-.3-2.32-2.12-1L44.54.4l.1-.4ZM29.19,3l.3-2.42,1.72,1.62,2.42-.3L32.52,4l1.11,2-2.32-.3L29.49,7.37l-.3-2.32L27.07,4ZM16.67,9.7,17,7.37,18.69,9l2.42-.3L20,10.81l1.11,2-2.32-.3L17,14.14l-.3-2.32-2.12-1ZM4.24,16.77l.3-2.32,1.82,1.62,2.32-.3-1.11,2L8.69,19.9l-2.32-.4L4.55,21.21l-.3-2.32L2.12,17.78Zm4-13,.3-2.42L10.3,2.93l2.42-.3L11.62,4.75l1.11,2-2.32-.3L8.59,8.08l-.4-2.32-2-1Z"/></svg>